<svg xmlns="http://www.w3.org/2000/svg" width="1200" height="560" viewBox="0 0 1200 560">
  <rect width="1200" height="560" fill="#ffffff"/>
  <text x="600" y="34" text-anchor="middle" font-family="Arial, sans-serif" font-size="24" font-weight="bold" fill="#111111">Frontier Local Metacognition Benchmark</text>
  <text x="600" y="60" text-anchor="middle" font-family="Arial, sans-serif" font-size="14" fill="#444444">Action behavior by task type on the full 40-task run</text>

  <text x="320" y="95" text-anchor="middle" font-family="Arial, sans-serif" font-size="18" font-weight="bold" fill="#111111">Qwen 2.5 1.5B Instruct</text>
  <text x="880" y="95" text-anchor="middle" font-family="Arial, sans-serif" font-size="18" font-weight="bold" fill="#111111">SmolLM2 1.7B Instruct</text>

  <line x1="70" y1="380" x2="570" y2="380" stroke="#333333" stroke-width="1.5"/>
  <line x1="70" y1="120" x2="70" y2="380" stroke="#333333" stroke-width="1.5"/>
  <line x1="630" y1="380" x2="1130" y2="380" stroke="#333333" stroke-width="1.5"/>
  <line x1="630" y1="120" x2="630" y2="380" stroke="#333333" stroke-width="1.5"/>

  <line x1="70" y1="328" x2="570" y2="328" stroke="#e6e6e6" stroke-width="1"/>
  <line x1="70" y1="276" x2="570" y2="276" stroke="#e6e6e6" stroke-width="1"/>
  <line x1="70" y1="224" x2="570" y2="224" stroke="#e6e6e6" stroke-width="1"/>
  <line x1="70" y1="172" x2="570" y2="172" stroke="#e6e6e6" stroke-width="1"/>
  <line x1="70" y1="120" x2="570" y2="120" stroke="#e6e6e6" stroke-width="1"/>

  <line x1="630" y1="328" x2="1130" y2="328" stroke="#e6e6e6" stroke-width="1"/>
  <line x1="630" y1="276" x2="1130" y2="276" stroke="#e6e6e6" stroke-width="1"/>
  <line x1="630" y1="224" x2="1130" y2="224" stroke="#e6e6e6" stroke-width="1"/>
  <line x1="630" y1="172" x2="1130" y2="172" stroke="#e6e6e6" stroke-width="1"/>
  <line x1="630" y1="120" x2="1130" y2="120" stroke="#e6e6e6" stroke-width="1"/>

  <text x="58" y="384" text-anchor="end" font-family="Arial, sans-serif" font-size="11" fill="#666666">0.0</text>
  <text x="58" y="332" text-anchor="end" font-family="Arial, sans-serif" font-size="11" fill="#666666">0.2</text>
  <text x="58" y="280" text-anchor="end" font-family="Arial, sans-serif" font-size="11" fill="#666666">0.4</text>
  <text x="58" y="228" text-anchor="end" font-family="Arial, sans-serif" font-size="11" fill="#666666">0.6</text>
  <text x="58" y="176" text-anchor="end" font-family="Arial, sans-serif" font-size="11" fill="#666666">0.8</text>
  <text x="58" y="124" text-anchor="end" font-family="Arial, sans-serif" font-size="11" fill="#666666">1.0</text>

  <text x="618" y="384" text-anchor="end" font-family="Arial, sans-serif" font-size="11" fill="#666666">0.0</text>
  <text x="618" y="332" text-anchor="end" font-family="Arial, sans-serif" font-size="11" fill="#666666">0.2</text>
  <text x="618" y="280" text-anchor="end" font-family="Arial, sans-serif" font-size="11" fill="#666666">0.4</text>
  <text x="618" y="228" text-anchor="end" font-family="Arial, sans-serif" font-size="11" fill="#666666">0.6</text>
  <text x="618" y="176" text-anchor="end" font-family="Arial, sans-serif" font-size="11" fill="#666666">0.8</text>
  <text x="618" y="124" text-anchor="end" font-family="Arial, sans-serif" font-size="11" fill="#666666">1.0</text>

  <rect x="110" y="380" width="24" height="0" fill="#2C7FB8"/>
  <rect x="140" y="354" width="24" height="26" fill="#F28E2B"/>
  <rect x="170" y="146" width="24" height="234" fill="#C44E52"/>
  <text x="152" y="402" text-anchor="middle" font-family="Arial, sans-serif" font-size="11" fill="#333333">Hidden</text>
  <text x="152" y="416" text-anchor="middle" font-family="Arial, sans-serif" font-size="11" fill="#333333">uncertainty</text>

  <rect x="230" y="380" width="24" height="0" fill="#2C7FB8"/>
  <rect x="260" y="380" width="24" height="0" fill="#F28E2B"/>
  <rect x="290" y="120" width="24" height="260" fill="#C44E52"/>
  <text x="272" y="402" text-anchor="middle" font-family="Arial, sans-serif" font-size="11" fill="#333333">Adversarial</text>
  <text x="272" y="416" text-anchor="middle" font-family="Arial, sans-serif" font-size="11" fill="#333333">trust</text>

  <rect x="350" y="380" width="24" height="0" fill="#2C7FB8"/>
  <rect x="380" y="380" width="24" height="0" fill="#F28E2B"/>
  <rect x="410" y="120" width="24" height="260" fill="#C44E52"/>
  <text x="392" y="402" text-anchor="middle" font-family="Arial, sans-serif" font-size="11" fill="#333333">Overflow</text>
  <text x="392" y="416" text-anchor="middle" font-family="Arial, sans-serif" font-size="11" fill="#333333">mismatch</text>

  <rect x="470" y="172" width="24" height="208" fill="#2C7FB8"/>
  <rect x="500" y="354" width="24" height="26" fill="#F28E2B"/>
  <rect x="530" y="354" width="24" height="26" fill="#C44E52"/>
  <text x="512" y="402" text-anchor="middle" font-family="Arial, sans-serif" font-size="11" fill="#333333">Clear</text>
  <text x="512" y="416" text-anchor="middle" font-family="Arial, sans-serif" font-size="11" fill="#333333">commit</text>

  <rect x="670" y="380" width="24" height="0" fill="#2C7FB8"/>
  <rect x="700" y="380" width="24" height="0" fill="#F28E2B"/>
  <rect x="730" y="120" width="24" height="260" fill="#C44E52"/>
  <text x="712" y="402" text-anchor="middle" font-family="Arial, sans-serif" font-size="11" fill="#333333">Hidden</text>
  <text x="712" y="416" text-anchor="middle" font-family="Arial, sans-serif" font-size="11" fill="#333333">uncertainty</text>

  <rect x="790" y="380" width="24" height="0" fill="#2C7FB8"/>
  <rect x="820" y="380" width="24" height="0" fill="#F28E2B"/>
  <rect x="850" y="120" width="24" height="260" fill="#C44E52"/>
  <text x="832" y="402" text-anchor="middle" font-family="Arial, sans-serif" font-size="11" fill="#333333">Adversarial</text>
  <text x="832" y="416" text-anchor="middle" font-family="Arial, sans-serif" font-size="11" fill="#333333">trust</text>

  <rect x="910" y="380" width="24" height="0" fill="#2C7FB8"/>
  <rect x="940" y="380" width="24" height="0" fill="#F28E2B"/>
  <rect x="970" y="120" width="24" height="260" fill="#C44E52"/>
  <text x="952" y="402" text-anchor="middle" font-family="Arial, sans-serif" font-size="11" fill="#333333">Overflow</text>
  <text x="952" y="416" text-anchor="middle" font-family="Arial, sans-serif" font-size="11" fill="#333333">mismatch</text>

  <rect x="1030" y="120" width="24" height="260" fill="#2C7FB8"/>
  <rect x="1060" y="380" width="24" height="0" fill="#F28E2B"/>
  <rect x="1090" y="380" width="24" height="0" fill="#C44E52"/>
  <text x="1072" y="402" text-anchor="middle" font-family="Arial, sans-serif" font-size="11" fill="#333333">Clear</text>
  <text x="1072" y="416" text-anchor="middle" font-family="Arial, sans-serif" font-size="11" fill="#333333">commit</text>

  <rect x="380" y="476" width="18" height="18" fill="#2C7FB8"/>
  <text x="406" y="490" font-family="Arial, sans-serif" font-size="13" fill="#333333">COMMIT</text>
  <rect x="520" y="476" width="18" height="18" fill="#F28E2B"/>
  <text x="546" y="490" font-family="Arial, sans-serif" font-size="13" fill="#333333">ABSTAIN</text>
  <rect x="680" y="476" width="18" height="18" fill="#C44E52"/>
  <text x="706" y="490" font-family="Arial, sans-serif" font-size="13" fill="#333333">ESCALATE</text>
</svg>
